<svg width="16" height="16" viewBox="0 0 16 16" fill="none" xmlns="http://www.w3.org/2000/svg">
<path d="M15.0312 2.5625C15.5938 2.78125 16 3.34375 16 3.96875V12.0625C16 12.6875 15.5938 13.25 15.0312 13.4688L8.6875 15.875C8.46875 15.9688 8.21875 16 8 16C7.75 16 7.5 15.9688 7.28125 15.875L0.9375 13.4688C0.375 13.25 0 12.6875 0 12.0625V3.96875C0 3.34375 0.375 2.78125 0.9375 2.5625L7.28125 0.15625C7.5 0.0625 7.75 0 8 0C8.21875 0 8.46875 0.0625 8.6875 0.15625L15.0312 2.5625ZM8 2.03125L2.78125 4L8 5.9375L13.1875 4L8 2.03125ZM9 13.625L14 11.7188V5.84375L9 7.71875V13.625Z" fill="white"/>
</svg>
