<svg width="19" height="19" viewBox="0 0 19 19" fill="none" xmlns="http://www.w3.org/2000/svg">
<path d="M9.5 0C14.725 0 19 4.275 19 9.5C19 14.7646 14.725 19 9.5 19C4.23542 19 0 14.7646 0 9.5C0 4.275 4.23542 0 9.5 0ZM1.9 9.5C1.9 13.6958 5.30417 17.1 9.5 17.1C11.2417 17.1 12.8646 16.5063 14.1312 15.5167L3.48333 4.86875C2.49375 6.13542 1.9 7.75833 1.9 9.5ZM15.4771 14.1708C16.4667 12.9042 17.1 11.2812 17.1 9.5C17.1 5.34375 13.6562 1.9 9.5 1.9C7.71875 1.9 6.09583 2.53333 4.82917 3.52292L15.4771 14.1708Z" fill="#DF1010"/>
</svg>
