<svg width="20" height="20" viewBox="0 0 20 20" fill="none" xmlns="http://www.w3.org/2000/svg">
<path d="M14.7055 13.2939C15.0961 13.6845 15.0961 14.3172 14.7055 14.7078C14.5118 14.9031 14.2555 15 13.9993 15C13.7431 15 13.4875 14.9024 13.2925 14.7071L9.99961 11.4159L6.70705 14.7063C6.51176 14.9031 6.25584 15 5.99992 15C5.744 15 5.4884 14.9031 5.29295 14.7063C4.90235 14.3157 4.90235 13.6829 5.29295 13.2923L8.58644 9.99883L5.29295 6.7069C4.90235 6.3163 4.90235 5.68354 5.29295 5.29295C5.68354 4.90235 6.3163 4.90235 6.7069 5.29295L9.99961 8.588L13.2931 5.29451C13.6837 4.90391 14.3165 4.90391 14.7071 5.29451C15.0976 5.6851 15.0976 6.31787 14.7071 6.70846L11.4136 10.002L14.7055 13.2939Z" fill="#252525"/>
</svg>
