<svg width="20" height="20" viewBox="0 0 20 20" fill="none" xmlns="http://www.w3.org/2000/svg">
<path d="M16 11.5H14.3281L12.8281 13H16C16.2757 13 16.5 13.2243 16.5 13.5V16C16.5 16.2757 16.2757 16.5 16 16.5H4C3.72431 16.5 3.5 16.2757 3.5 16V13.5C3.5 13.225 3.72438 13 4 13H7.17188L5.67188 11.5H4C2.89531 11.5 2 12.3953 2 13.5V16C2 17.1047 2.89531 18 4 18H16C17.1047 18 18 17.1047 18 16V13.5C18 12.3969 17.1031 11.5 16 11.5ZM15.5 14.75C15.5 14.3356 15.1641 14 14.75 14C14.3359 14 14 14.3344 14 14.75C14 15.1641 14.3359 15.5 14.75 15.5C15.1641 15.5 15.5 15.1656 15.5 14.75ZM9.46875 13.5031C9.61562 13.6781 9.80625 13.75 10 13.75C10.1938 13.75 10.3837 13.6768 10.5303 13.5303L14.7803 9.28028C15.0733 8.98731 15.0733 8.51278 14.7803 8.21966C14.4873 7.92653 14.0128 7.92669 13.7197 8.21966L10.75 11.1906V2.75C10.75 2.33594 10.4156 2 10 2C9.58437 2 9.25 2.33594 9.25 2.75V11.1906L6.25313 8.21875C5.96016 7.92578 5.48563 7.92578 5.1925 8.21875C4.89938 8.51172 4.89953 8.98625 5.1925 9.27938L9.46875 13.5031Z" fill="#252525"/>
</svg>
