<svg width="20" height="20" viewBox="0 0 20 20" fill="none" xmlns="http://www.w3.org/2000/svg">
<path d="M10.75 12.6906V9.5C10.75 9.08594 10.4141 8.75 10 8.75C9.58594 8.75 9.25 9.0875 9.25 9.5V12.6906L8.00313 11.4688C7.88438 11.3219 7.69375 11.25 7.5 11.25C7.30625 11.25 7.11625 11.3219 6.96969 11.4688C6.67672 11.7617 6.67672 12.2362 6.96969 12.5294L9.46969 15.0294C9.76266 15.3223 10.2372 15.3223 10.5303 15.0294L13.0303 12.5294C13.3233 12.2364 13.3233 11.7619 13.0303 11.4688C12.7373 11.1756 12.2628 11.1758 11.9697 11.4688L10.75 12.6906ZM15.4156 4.91812L13.0834 2.58562C12.7063 2.21069 12.1969 2 11.6687 2H6C4.89531 2 4 2.89531 4 4L4.0002 16C4.0002 17.1044 4.89552 18 6.0002 18H14C15.1 18 16 17.1 16 16V6.33125C16 5.80313 15.7906 5.29375 15.4156 4.91812ZM14.5 16C14.5 16.2761 14.2761 16.5 14 16.5H6.00062C5.72444 16.5 5.50063 16.2761 5.50063 16L5.5 4.00406C5.5 3.72794 5.72388 3.50406 6 3.50406H11V6C11 6.55219 11.4478 7 12 7H14.4719V16H14.5Z" fill="#252525"/>
</svg>
