<svg width="36" height="36" viewBox="0 0 36 36" fill="none" xmlns="http://www.w3.org/2000/svg">
<rect width="36" height="36" rx="18" fill="#F5F2FF"/>
<path d="M13.2938 15.7063C13.6844 16.0966 14.3175 16.0969 14.7078 15.7063L17 13.4156V21C17 21.5522 17.4478 22 18 22C18.5522 22 19 21.5522 19 21V13.4156L21.2931 15.7087C21.6834 16.0991 22.3166 16.0991 22.7072 15.7087C23.0975 15.3184 23.0975 14.6853 22.7072 14.2947L18.7072 10.2947C18.5125 10.0977 18.2563 10 18 10C17.7438 10 17.4875 10.0977 17.2937 10.293L13.2938 14.2937C12.9025 14.6844 12.9025 15.3156 13.2938 15.7063ZM25 21H20C20 22.1047 19.1047 23 18 23C16.8953 23 16 22.1047 16 21H11C10.4478 21 10 21.4478 10 22V25C10 25.5522 10.4478 26 11 26H25C25.5522 26 26 25.5522 26 25V22C26 21.4469 25.5531 21 25 21ZM23.5 24.25C23.0875 24.25 22.75 23.9125 22.75 23.5C22.75 23.0875 23.0875 22.75 23.5 22.75C23.9125 22.75 24.25 23.0875 24.25 23.5C24.25 23.9125 23.9125 24.25 23.5 24.25Z" fill="#5828BA"/>
</svg>
