<svg width="22" height="20" viewBox="0 0 22 20" fill="none" xmlns="http://www.w3.org/2000/svg">
<path d="M14.9008 2.58657C15.7315 1.80448 17.0806 1.80448 17.9113 2.58657L19.2205 3.82019C20.0512 4.60204 20.0512 5.87101 19.2205 6.65317L17.6123 8.16743L13.2926 4.10083L14.9008 2.58657ZM16.8613 8.8745L9.11243 16.1674C8.76685 16.4927 8.33821 16.7336 7.86968 16.8619L3.87131 17.9694C3.59152 18.0477 3.28881 17.9757 3.08247 17.7536C2.87611 17.5878 2.79896 17.303 2.8813 17.0371L4.05739 13.2734C4.19562 12.8322 4.44915 12.4286 4.79506 12.1033L12.5416 4.80853L16.8613 8.8745Z" fill="#252525"/>
</svg>
