<svg width="24" height="24" viewBox="0 0 20 20" fill="none" xmlns="http://www.w3.org/2000/svg">
<path d="M16.5781 4.61572L10.5781 2.11572C10.3945 2.03759 10.1981 2 10.0019 2C9.80562 2 9.60938 2.03738 9.425 2.1155L3.42531 4.61572C2.86656 4.84603 2.5 5.39353 2.5 5.97166C2.5 14.0435 8.41875 17.9998 9.99687 17.9998C11.5375 17.9998 17.5 14.1029 17.5 5.97166C17.5 5.39353 17.1344 4.84603 16.5781 4.61572ZM10 16.4998C6.95312 15.231 4 11.2904 4 5.99978L10 3.49978L16 5.99978C16 11.431 12.925 15.281 10 16.4998ZM8.25313 9.71854C8.13438 9.57166 7.94063 9.47166 7.75 9.47166C7.32156 9.47166 7 9.82197 7 10.2217C7 10.4404 7.07188 10.6342 7.21875 10.7529L8.71875 12.2529C8.85938 12.4217 9.05312 12.4717 9.25 12.4717C9.33109 12.4717 9.60813 12.4562 9.81938 12.2099L12.8194 8.70994C12.9407 8.56844 13 8.39463 13 8.22182C13 7.99041 12.8191 7.47213 12.2507 7.47213C12.0395 7.47213 11.8294 7.5606 11.6807 7.73344L9.20937 10.6467L8.25313 9.71854Z" fill="#252525"/>
</svg>
