<svg width="25" height="25" viewBox="0 0 25 25" fill="none" xmlns="http://www.w3.org/2000/svg">
<path d="M2.5 12.5C2.5 6.97656 6.97656 2.5 12.5 2.5C18.0234 2.5 22.5 6.97656 22.5 12.5C22.5 18.0234 18.0234 22.5 12.5 22.5C6.97656 22.5 2.5 18.0234 2.5 12.5ZM9.33594 10.6289L11.1758 12.4648L9.33594 14.3359C8.97266 14.7031 8.97266 15.2969 9.33594 15.6289C9.70312 16.0273 10.2969 16.0273 10.6289 15.6289L12.4648 13.8242L14.3359 15.6289C14.7031 16.0273 15.2969 16.0273 15.6289 15.6289C16.0273 15.2969 16.0273 14.7031 15.6289 14.3359L13.8242 12.4648L15.6289 10.6289C16.0273 10.2969 16.0273 9.70312 15.6289 9.33594C15.2969 8.97266 14.7031 8.97266 14.3359 9.33594L12.4648 11.1758L10.6289 9.33594C10.2969 8.97266 9.70312 8.97266 9.33594 9.33594C8.97266 9.70312 8.97266 10.2969 9.33594 10.6289Z" fill="#DF1010"/>
</svg>
