<svg width="16" height="15" viewBox="0 0 16 15" fill="none" xmlns="http://www.w3.org/2000/svg">
<path d="M8 0C12.125 0 15.5 3.375 15.5 7.5C15.5 11.6562 12.125 15 8 15C3.84375 15 0.5 11.6562 0.5 7.5C0.5 3.375 3.84375 0 8 0ZM8 12C8.5625 12 9 11.5625 9 11C9 10.4375 8.5625 10 8 10C7.4375 10 7 10.4375 7 11C7 11.5625 7.4375 12 8 12ZM10.1875 7.5625C10.8438 7.15625 11.25 6.4375 11.25 5.6875C11.25 4.46875 10.2812 3.5 9.0625 3.5H7.4375C6.21875 3.5 5.25 4.46875 5.25 5.6875C5.25 6.09375 5.59375 6.4375 6 6.4375C6.40625 6.4375 6.75 6.09375 6.75 5.6875C6.75 5.3125 7.0625 5 7.4375 5H9.0625C9.4375 5 9.75 5.3125 9.75 5.6875C9.75 5.9375 9.625 6.15625 9.40625 6.28125L7.625 7.34375C7.375 7.5 7.25 7.75 7.25 8V8.5C7.25 8.90625 7.59375 9.25 8 9.25C8.40625 9.25 8.75 8.90625 8.75 8.5V8.4375L10.1875 7.5625Z" fill="white"/>
</svg>
