<svg width="16" height="17" viewBox="0 0 16 17" fill="none" xmlns="http://www.w3.org/2000/svg">
<path d="M8 0.5C12.4187 0.5 16 4.08125 16 8.5C16 12.9187 12.4187 16.5 8 16.5C6.30312 16.5 4.725 15.9688 3.42812 15.0656C2.975 14.7219 2.86375 14.125 3.18125 13.6719C3.49688 13.2188 4.11875 13.1094 4.57188 13.425C5.54375 14.1031 6.725 14.5 8 14.5C11.3125 14.5 14 11.8125 14 8.5C14 5.15938 11.3125 2.5 8 2.5C6.31563 2.5 4.84375 3.17062 3.75625 4.25625L4.71875 5.21875C5.19063 5.69063 4.85625 6.5 4.19063 6.5H0.75C0.335938 6.5 0 6.16563 0 5.75V2.31062C0 1.6425 0.807813 1.30781 1.28031 1.78031L2.34313 2.84313C3.79063 1.39656 5.79063 0.5 7.97188 0.5H8ZM8 4.5C8.41562 4.5 8.75 4.83437 8.75 5.25V8.19063L10.7531 10.2188C11.0719 10.5125 11.0719 10.9875 10.7531 11.2531C10.4875 11.5719 10.0125 11.5719 9.71875 11.2531L7.46875 9.00313C7.32812 8.89062 7.25 8.7 7.25 8.5V5.25C7.25 4.83437 7.58437 4.5 8 4.5Z" fill="white"/>
</svg>
