<svg width="25" height="25" viewBox="0 0 25 25" fill="none" xmlns="http://www.w3.org/2000/svg">
<path fill-rule="evenodd" clip-rule="evenodd" d="M5 12.5C5 13.9834 5.43987 15.4334 6.26398 16.6668C7.08809 17.9001 8.25943 18.8614 9.62987 19.4291C11.0003 19.9967 12.5083 20.1453 13.9632 19.8559C15.418 19.5665 16.7544 18.8522 17.8033 17.8033C18.8522 16.7544 19.5665 15.418 19.8559 13.9632C20.1453 12.5083 19.9968 11.0003 19.4291 9.62987C18.8614 8.25942 17.9001 7.08809 16.6668 6.26397C15.4334 5.43986 13.9834 5 12.5 5C11.8096 5 11.25 4.44035 11.25 3.75C11.25 3.05964 11.8096 2.5 12.5 2.5C14.4778 2.5 16.4112 3.08649 18.0557 4.1853C19.7002 5.28412 20.9819 6.8459 21.7388 8.67316C22.4957 10.5004 22.6937 12.5111 22.3079 14.4509C21.922 16.3907 20.9696 18.1725 19.5711 19.5711C18.1725 20.9696 16.3907 21.922 14.4509 22.3078C12.5111 22.6937 10.5004 22.4957 8.67317 21.7388C6.84591 20.9819 5.28412 19.7002 4.1853 18.0557C3.08649 16.4112 2.5 14.4778 2.5 12.5C2.5 11.8096 3.05964 11.25 3.75 11.25C4.44036 11.25 5 11.8096 5 12.5Z" fill="#F9B734"/>
</svg>
