<svg width="24" height="24" viewBox="0 0 24 24" fill="none" xmlns="http://www.w3.org/2000/svg">
<path d="M11.9999 2.40088C6.6974 2.40088 2.3999 6.69838 2.3999 12.0009C2.3999 17.3034 6.6974 21.6009 11.9999 21.6009C17.3024 21.6009 21.5999 17.3034 21.5999 12.0009C21.5999 6.69838 17.3024 2.40088 11.9999 2.40088ZM11.9999 7.20088C12.6625 7.20088 13.1999 7.73825 13.1999 8.40088C13.1999 9.0635 12.6625 9.60088 11.9999 9.60088C11.3373 9.60088 10.7999 9.06463 10.7999 8.40088C10.7999 7.73713 11.3362 7.20088 11.9999 7.20088ZM13.4999 16.8009H10.4999C10.0049 16.8009 9.5999 16.3996 9.5999 15.9009C9.5999 15.4021 10.003 15.0009 10.4999 15.0009H11.0999V12.6009H10.7999C10.303 12.6009 9.8999 12.1978 9.8999 11.7009C9.8999 11.204 10.3049 10.8009 10.7999 10.8009H11.9999C12.4968 10.8009 12.8999 11.204 12.8999 11.7009V15.0009H13.4999C13.9968 15.0009 14.3999 15.404 14.3999 15.9009C14.3999 16.3978 13.9987 16.8009 13.4999 16.8009Z" fill="#416AD3"/>
</svg>
