<svg width="21" height="20" viewBox="0 0 21 20" fill="none" xmlns="http://www.w3.org/2000/svg">
<path d="M18.2446 3.75V8.25C18.2446 8.80281 17.7974 9.25 17.2446 9.25H12.7446C12.1918 9.25 11.7446 8.80281 11.7446 8.25C11.7446 7.69719 12.1918 7.25 12.7446 7.25H14.7256C13.789 6.00937 12.3115 5.25688 10.7381 5.25688C7.98525 5.25688 5.74463 7.49688 5.74463 10.25C5.74463 13.0031 7.98494 15.2437 10.7384 15.2437C11.8284 15.2437 12.8643 14.8991 13.7346 14.2456C14.179 13.9166 14.804 14.0034 15.1349 14.4448C15.4659 14.8873 15.3771 15.5142 14.9357 15.8452C13.716 16.7602 12.2682 17.247 10.742 17.247C6.88525 17.2469 3.74463 14.1063 3.74463 10.25C3.74463 6.39375 6.88525 3.25312 10.7415 3.25312C12.9024 3.25312 14.929 4.26781 16.2446 5.94438V3.75C16.2446 3.19719 16.6918 2.75 17.2446 2.75C17.7974 2.75 18.2446 3.19719 18.2446 3.75Z" fill="#252525"/>
</svg>
