<svg width="16" height="17" viewBox="0 0 16 17" fill="none" xmlns="http://www.w3.org/2000/svg">
<path d="M14.5625 3.125C15.125 3.375 15.5 3.90625 15.5 4.5C15.5 12.5 9.59375 16.5 7.96875 16.5C6.40625 16.5 0.5 12.5625 0.5 4.5C0.5 3.90625 0.84375 3.375 1.40625 3.125L7.40625 0.625C7.5625 0.5625 7.8125 0.5 8 0.5C8.15625 0.5 8.40625 0.5625 8.5625 0.625L14.5625 3.125ZM11 6.78125C11 6.53125 10.8125 6.03125 10.25 6.03125C10.0312 6.03125 9.8125 6.09375 9.65625 6.28125L7.1875 9.15625L6.25 8.25C6.125 8.09375 5.9375 8 5.75 8C5.3125 8 5 8.375 5 8.75C5 8.96875 5.0625 9.15625 5.21875 9.28125L6.71875 10.7812C6.84375 10.9375 7.03125 11 7.25 11C7.3125 11 7.59375 11 7.8125 10.75L10.8125 7.25C10.9375 7.125 11 6.9375 11 6.78125Z" fill="white"/>
</svg>
