<svg width="25" height="25" viewBox="0 0 25 25" fill="none" xmlns="http://www.w3.org/2000/svg">
<path d="M2.5 12.5C2.5 6.97656 6.97656 2.5 12.5 2.5C18.0234 2.5 22.5 6.97656 22.5 12.5C22.5 18.0234 18.0234 22.5 12.5 22.5C6.97656 22.5 2.5 18.0234 2.5 12.5ZM17.0234 10.7734C17.4492 10.3477 17.4492 9.65234 17.0234 9.22656C16.5977 8.80078 15.9023 8.80078 15.4766 9.22656L11.25 13.4531L9.52344 11.7266C9.09766 11.3008 8.40234 11.3008 7.97656 11.7266C7.55078 12.1523 7.55078 12.8477 7.97656 13.2734L10.4766 15.7734C10.9023 16.1992 11.5977 16.1992 12.0234 15.7734L17.0234 10.7734Z" fill="#2AA300"/>
</svg>

