<svg width="23" height="20" viewBox="0 0 23 20" fill="none" xmlns="http://www.w3.org/2000/svg">
<path d="M11.2382 7.0125C11.3311 7.00312 11.4241 7 11.517 7C13.2762 7 14.7035 8.31562 14.7035 10C14.7035 11.6562 13.2762 13 11.517 13C9.72794 13 8.33052 11.6562 8.33052 10C8.33052 9.9125 8.33384 9.825 8.3438 9.7375C8.65249 9.87813 9.01098 10 9.39269 10C10.5644 10 11.517 9.10312 11.517 8C11.517 7.64062 11.3876 7.30312 11.2382 7.0125ZM17.9099 5.51875C19.4634 6.875 20.5023 8.47187 20.9935 9.61562C21.1031 9.8625 21.1031 10.1375 20.9935 10.3844C20.5023 11.5 19.4634 13.0969 17.9099 14.4812C16.3466 15.85 14.199 17 11.517 17C8.83505 17 6.68749 15.85 5.12477 14.4812C3.57135 13.0969 2.53309 11.5 2.03921 10.3844C1.93029 10.1375 1.93029 9.8625 2.03921 9.61562C2.53309 8.47187 3.57135 6.875 5.12477 5.51875C6.68749 4.15125 8.83505 3 11.517 3C14.199 3 16.3466 4.15125 17.9099 5.51875ZM11.517 5.5C8.8782 5.5 6.73727 7.51562 6.73727 10C6.73727 12.4844 8.8782 14.5 11.517 14.5C14.1558 14.5 16.2968 12.4844 16.2968 10C16.2968 7.51562 14.1558 5.5 11.517 5.5Z" fill="#252525"/>
</svg>
