<svg width="24" height="24" viewBox="0 0 24 24" fill="none" xmlns="http://www.w3.org/2000/svg">
<path d="M21.3855 18.0391L13.3865 4.3886C12.7741 3.33856 11.2287 3.33856 10.6121 4.3886L2.61686 18.0391C2.00146 19.0854 2.76795 20.4017 4.00141 20.4017H19.9995C21.228 20.4017 21.9968 19.0891 21.3855 18.0391ZM11.0989 8.70125C11.0989 8.20436 11.5021 7.80122 11.9989 7.80122C12.4958 7.80122 12.899 8.20624 12.899 8.70125V13.5014C12.899 13.9983 12.4958 14.4015 12.0327 14.4015C11.5696 14.4015 11.0989 14.0002 11.0989 13.5014V8.70125ZM11.9989 18.0016C11.3479 18.0016 10.8199 17.4736 10.8199 16.8225C10.8199 16.1715 11.3475 15.6435 11.9989 15.6435C12.6503 15.6435 13.178 16.1715 13.178 16.8225C13.1765 17.4728 12.6515 18.0016 11.9989 18.0016Z" fill="#ED6503"/>
</svg>
